<?xml version="1.0" standalone="no"?>
<!DOCTYPE svg PUBLIC "-//W3C//DTD SVG 1.1//EN" "http://www.w3.org/Graphics/SVG/1.1/DTD/svg11.dtd" >
<svg xmlns="http://www.w3.org/2000/svg">
<metadata>Generated by IcoMoon</metadata>
<defs>
<font id="icons" horiz-adv-x="1024">
<font-face units-per-em="1024" ascent="960" descent="-64" />
<missing-glyph horiz-adv-x="1024" />
<glyph unicode="&#x20;" horiz-adv-x="512" d="" />
<glyph unicode="&#xe900;" glyph-name="bag" horiz-adv-x="1052" d="M1052.444-64h-1052.444v768h1052.444v-768zM85.333 21.333h881.778v597.333h-881.778v-597.333zM796.444 686.933h-85.333c0 102.4-85.333 187.733-187.733 187.733s-182.044-85.333-182.044-187.733h-85.333c0 153.6 125.156 273.067 273.067 273.067s267.378-119.467 267.378-273.067z" />
<glyph unicode="&#xe901;" glyph-name="close" d="M69.522 960.54l949.443-949.443-71.928-71.928-949.443 949.443 71.928 71.928zM951.853 960.553l71.928-71.928-949.443-949.443-71.928 71.928 949.443 949.443z" />
<glyph unicode="&#xe902;" glyph-name="facebook" horiz-adv-x="474" d="M473.6 627.2h-160v108.8c0 38.4 25.6 51.2 44.8 51.2s115.2 0 115.2 0v172.8h-160c-172.8 0-211.2-128-211.2-217.6v-115.2h-102.4v-179.2h102.4c0-230.4 0-512 0-512h211.2c0 0 0 281.6 0 512h140.8l19.2 179.2z" />
<glyph unicode="&#xe903;" glyph-name="wishlist-solid" horiz-adv-x="1086" d="M546.133-64l-446.836 446.836c-130.327 130.327-130.327 347.539 0 477.867 62.061 62.061 148.945 99.297 235.83 99.297 0 0 0 0 0 0 74.473 0 148.945-24.824 204.8-68.267 130.327 99.297 322.715 93.091 440.63-31.030 130.327-130.327 130.327-347.539 0-477.867l-434.424-446.836zM335.127 866.909c-68.267 0-124.121-24.824-173.77-74.473-93.091-93.091-93.091-248.242 0-347.539l378.57-378.57 378.57 378.57c93.091 93.091 93.091 248.242 0 347.539v0c-93.091 93.091-248.242 93.091-347.539 0l-24.824-31.030-37.236 31.030c-43.442 49.648-105.503 74.473-173.77 74.473z" />
<glyph unicode="&#xe904;" glyph-name="instagram" d="M512 870.4c134.4 0 153.6 0 204.8 0s76.8-12.8 96-19.2c25.6-6.4 38.4-19.2 57.6-38.4s32-32 38.4-57.6c6.4-19.2 12.8-44.8 19.2-96 0-51.2 0-70.4 0-204.8s0-153.6 0-204.8c0-51.2-12.8-76.8-19.2-96-6.4-25.6-19.2-38.4-38.4-57.6s-32-32-57.6-38.4c-19.2-6.4-44.8-12.8-96-19.2-51.2 0-70.4 0-204.8 0s-153.6 0-204.8 0c-51.2 0-76.8 12.8-96 19.2-25.6 6.4-38.4 19.2-57.6 38.4s-32 32-38.4 57.6c-6.4 19.2-12.8 44.8-19.2 96 0 51.2 0 70.4 0 204.8s0 153.6 0 204.8c0 51.2 12.8 76.8 19.2 96 6.4 25.6 19.2 38.4 38.4 57.6s32 32 57.6 38.4c19.2 0 44.8 12.8 96 12.8 51.2 6.4 70.4 6.4 204.8 6.4zM512 960c-140.8 0-153.6 0-211.2 0s-89.6-12.8-121.6-25.6c-32-12.8-64-32-89.6-57.6-32-32-51.2-57.6-64-96-12.8-32-19.2-70.4-25.6-121.6 0-57.6 0-70.4 0-211.2s0-153.6 0-211.2c0-51.2 12.8-89.6 25.6-121.6s32-64 57.6-89.6c25.6-25.6 57.6-44.8 89.6-57.6s70.4-19.2 121.6-25.6c57.6 0 70.4 0 211.2 0s153.6 0 211.2 0c51.2 0 89.6 12.8 121.6 25.6s64 32 89.6 57.6c25.6 25.6 44.8 57.6 57.6 89.6s19.2 70.4 25.6 121.6c0 57.6 0 70.4 0 211.2s0 153.6 0 211.2c0 57.6-12.8 89.6-25.6 121.6s-32 64-57.6 89.6c-25.6 25.6-57.6 44.8-89.6 57.6s-70.4 19.2-121.6 25.6c-51.2 6.4-64 6.4-204.8 6.4v0zM512 710.4c-147.2 0-262.4-115.2-262.4-262.4s115.2-262.4 262.4-262.4c147.2 0 262.4 115.2 262.4 262.4s-115.2 262.4-262.4 262.4zM512 275.2c-96 0-172.8 76.8-172.8 172.8s76.8 172.8 172.8 172.8c96 0 172.8-76.8 172.8-172.8s-76.8-172.8-172.8-172.8zM851.2 723.2c0-35.346-28.654-64-64-64s-64 28.654-64 64c0 35.346 28.654 64 64 64s64-28.654 64-64z" />
<glyph unicode="&#xe905;" glyph-name="linkedin" horiz-adv-x="1071" d="M602.353 524.967v0c0 6.693-6.693 0 0 0v0zM240.941-64h-227.556v689.359h227.556v-689.359zM127.163 719.059v0c-80.314 0-127.163 53.542-127.163 120.471s53.542 120.471 127.163 120.471c80.314 0 127.163-53.542 127.163-120.471 6.693-66.928-46.85-120.471-127.163-120.471zM1070.85-64h-227.556v368.105c0 93.699-33.464 153.935-113.778 153.935-60.235 0-100.392-40.157-120.471-87.007-6.693-6.693-6.693-26.771-6.693-46.85v-388.183h-234.248c0 0 0 629.124 0 689.359h234.248v-100.392c33.464 46.85 87.007 113.778 207.477 113.778 153.935 0 261.020-100.392 261.020-307.869v-394.876z" />
<glyph unicode="&#xe906;" glyph-name="user" horiz-adv-x="900" d="M453.042 308.364c-179.976 0-328.921 148.945-328.921 328.921s148.945 322.715 328.921 322.715 322.715-148.945 322.715-328.921-148.945-322.715-322.715-322.715zM453.042 866.909c-130.327 0-235.83-105.503-235.83-235.83s105.503-229.624 235.83-229.624 229.624 105.503 229.624 235.83-105.503 229.624-229.624 229.624zM899.879-70.206h-93.091c0 186.182-161.358 359.952-353.745 359.952s-359.952-173.77-359.952-359.952h-93.091c0 248.242 204.8 453.042 453.042 453.042s446.836-204.8 446.836-453.042z" />
<glyph unicode="&#xe907;" glyph-name="pinterest" horiz-adv-x="794" d="M422.4 960c-281.6 0-422.4-198.4-422.4-364.8 0-102.4 38.4-192 121.6-224 12.8-6.4 25.6 0 32 12.8 0 12.8 6.4 38.4 12.8 44.8 6.4 12.8 0 19.2-6.4 32-32 32-44.8 64-44.8 115.2 0 147.2 108.8 281.6 288 281.6 160 0 243.2-96 243.2-224 0-166.4-70.4-313.6-185.6-313.6-64 0-108.8 51.2-96 115.2 25.6 76.8 57.6 153.6 57.6 211.2 0 51.2-25.6 89.6-76.8 89.6-64 0-115.2-64-115.2-153.6 0-57.6 19.2-96 19.2-96s-64-275.2-76.8-320c-25.6-96-6.4-211.2 0-224 0-6.4 6.4-6.4 12.8-6.4 6.4 6.4 83.2 102.4 108.8 192 6.4 25.6 38.4 160 38.4 160 19.2-38.4 83.2-70.4 140.8-70.4 192 0 320 172.8 320 403.2 0 179.2-147.2 339.2-371.2 339.2z" />
<glyph unicode="&#xe908;" glyph-name="search-bold" d="M445.506 62.338c-246.026 0-445.506 199.481-445.506 452.156s199.481 445.506 445.506 445.506 452.156-199.481 452.156-452.156-199.481-445.506-452.156-445.506zM445.506 860.26c-192.831 0-352.416-159.584-352.416-352.416s166.234-345.766 352.416-345.766 352.416 159.584 352.416 352.416-159.584 345.766-352.416 345.766zM970.805-64c-13.299 0-26.597 6.649-33.247 13.299l-232.727 232.727c-19.948 19.948-19.948 53.195 0 73.143s53.195 19.948 73.143 0l232.727-232.727c19.948-19.948 19.948-53.195 0-73.143-13.299-6.649-26.597-13.299-39.896-13.299z" />
<glyph unicode="&#xe909;" glyph-name="search-light" d="M432.208 95.584c-239.377 0-432.208 192.831-432.208 432.208s192.831 432.208 432.208 432.208 432.208-192.831 432.208-432.208-192.831-432.208-432.208-432.208zM432.208 893.506c-199.481 0-365.714-166.234-365.714-365.714s166.234-365.714 365.714-365.714 365.714 166.234 365.714 365.714-166.234 365.714-365.714 365.714zM727.927 274.972l296.253-296.169-47.011-47.024-296.253 296.169 47.011 47.024z" />
<glyph unicode="&#xe90a;" glyph-name="twitter" horiz-adv-x="1260" d="M1260.308 841.846c-47.262-23.631-94.523-31.508-149.662-39.385 55.138 31.508 94.523 78.769 110.277 141.785-47.262-31.508-102.4-47.262-165.415-63.015-47.262 47.262-118.154 78.769-189.046 78.769-133.908 0-252.062-118.154-252.062-259.938 0-23.631 0-39.385 7.877-55.138-212.677 7.877-409.6 110.277-535.631 267.815-23.631-39.385-31.508-78.769-31.508-133.908 0-86.646 47.262-165.415 118.154-212.677-39.385 0-78.769 15.754-118.154 31.508 0 0 0 0 0 0 0-126.031 86.646-228.431 204.8-252.062-23.631-7.877-47.262-7.877-70.892-7.877-15.754 0-31.508 0-47.262 7.877 31.508-102.4 126.031-181.169 244.185-181.169-86.646-70.892-196.923-110.277-322.954-110.277-23.631 0-39.385 0-63.015 0 118.154-78.769 252.062-118.154 393.846-118.154 472.615 0 732.554 393.846 732.554 732.554 0 7.877 0 23.631 0 31.508 55.138 39.385 102.4 86.646 133.908 141.785z" />
<glyph unicode="&#xe90b;" glyph-name="arrow-down-solid" horiz-adv-x="2253" d="M0 960l1126.4-1024 1126.4 1024z" />
<glyph unicode="&#xe90c;" glyph-name="arrow-left-solid" horiz-adv-x="465" d="M0 960v-1024l465.455 512z" />
<glyph unicode="&#xe90d;" glyph-name="arrow-up" horiz-adv-x="1862" d="M1861.818 29.091l-930.909 930.909-930.909-930.909 93.091-93.091 837.818 837.818 837.818-837.818z" />
<glyph unicode="&#xe90e;" glyph-name="arrow-down" horiz-adv-x="1747" d="M883.451-64l-883.451 883.451 140.549 140.549 742.902-722.824 722.824 722.824 140.549-140.549z" />
<glyph unicode="&#xe90f;" glyph-name="check" horiz-adv-x="1471" d="M562.479-64l-562.479 562.479 100.958 100.958 461.521-447.099 807.662 807.662 100.958-100.958z" />
<glyph unicode="&#xe910;" glyph-name="download" horiz-adv-x="838" d="M0 29.091h837.818v-93.091h-837.818v93.091zM418.909 178.036l-363.055 353.745 74.473 65.164 288.582-288.582 288.582 288.582 74.473-65.164zM372.364 960h93.091v-651.636h-93.091v651.636z" />
<glyph unicode="&#xe911;" glyph-name="mail" horiz-adv-x="1579" d="M59.733 956.773l725.333-580.267 725.333 580.267h-1450.667zM0 905.573v-955.733c0-8.533 8.533-17.067 17.067-17.067h1536c8.533 0 17.067 8.533 17.067 17.067v955.733l-759.467-614.4c-17.067-8.533-34.133-8.533-51.2 0l-759.467 614.4z" />
<glyph unicode="&#xe912;" glyph-name="message" horiz-adv-x="1232" d="M277.173-64l-53.895 269.474c-146.286 76.992-223.278 200.18-223.278 323.368 0 238.677 277.173 431.158 615.94 431.158s615.94-192.481 615.94-431.158c0-261.774-354.165-477.353-746.827-415.759l-207.88-177.083zM615.94 883.008c-300.271 0-538.947-153.985-538.947-354.165 0-100.090 69.293-200.18 192.481-269.474l15.398-7.699 38.496-177.083 138.586 123.188h15.398c354.165-61.594 669.835 115.489 669.835 338.767 7.699 192.481-230.977 346.466-531.248 346.466z" />
<glyph unicode="&#xe913;" glyph-name="phone" d="M787.2-64c-64 0-275.2 19.2-518.4 268.8-211.2 211.2-288 364.8-262.4 537.6 0 25.6 6.4 44.8 19.2 70.4 6.4 19.2 12.8 32 25.6 44.8l-12.8 6.4 64 64c19.2 19.2 51.2 32 76.8 32 0 0 0 0 0 0 32 0 57.6-12.8 76.8-32l147.2-147.2c25.6-19.2 32-44.8 32-76.8s-12.8-57.6-32-76.8l-57.6-57.6c25.6-44.8 57.6-102.4 121.6-166.4s121.6-96 166.4-121.6l57.6 57.6c44.8 44.8 115.2 44.8 153.6 0l147.2-147.2c44.8-44.8 38.4-108.8 0-153.6l-64-64-6.4 6.4c-12.8-6.4-32-19.2-44.8-25.6-25.6-6.4-44.8-12.8-70.4-19.2 0 0-6.4 0-19.2 0zM115.2 844.8v0c-19.2-19.2-25.6-38.4-32-57.6-12.8-19.2-12.8-32-19.2-51.2-19.2-153.6 51.2-294.4 249.6-486.4 268.8-268.8 486.4-249.6 486.4-249.6 19.2 0 38.4 6.4 51.2 12.8 19.2 6.4 38.4 19.2 51.2 32l38.4 38.4c19.2 19.2 19.2 44.8 0 64l-147.2 147.2c-19.2 19.2-44.8 19.2-64 0l-89.6-89.6-38.4 19.2c-51.2 25.6-115.2 64-185.6 134.4-64 70.4-102.4 134.4-128 185.6l-19.2 38.4 89.6 89.6c6.4 6.4 12.8 19.2 12.8 32s-6.4 25.6-12.8 32l-147.2 147.2c-6.4 6.4-19.2 12.8-32 12.8 0 0 0 0 0 0-12.8 0-19.2-6.4-32-12.8l-32-38.4z" />
<glyph unicode="&#xe914;" glyph-name="arrow-left" horiz-adv-x="579" d="M508.82 960l69.963-69.963-445.217-438.857 445.217-445.217-69.963-69.963-508.82 515.18z" />
<glyph unicode="&#xe915;" glyph-name="arrow-right" horiz-adv-x="579" d="M69.963-64l-69.963 69.963 445.217 445.217-445.217 438.857 69.963 69.963 508.82-508.82z" />
<glyph unicode="&#xe916;" glyph-name="cart" horiz-adv-x="1317" d="M932.571 173.714h-725.333l-207.238 609.524h932.571v-91.429h-804.571l140.19-426.667h597.333l280.381 694.857h170.667v-91.429h-109.714zM408.381 27.429c0-47.128-38.205-85.333-85.333-85.333s-85.333 38.205-85.333 85.333c0 47.128 38.205 85.333 85.333 85.333s85.333-38.205 85.333-85.333zM932.571 27.429c0-47.128-38.205-85.333-85.333-85.333s-85.333 38.205-85.333 85.333c0 47.128 38.205 85.333 85.333 85.333s85.333-38.205 85.333-85.333z" />
<glyph unicode="&#xe917;" glyph-name="location" horiz-adv-x="794" d="M394.299-64l-23.54 17.655c-11.77 5.885-370.759 235.402-370.759 612.046 0 217.747 176.552 394.299 394.299 394.299s394.299-176.552 394.299-394.299c0-370.759-358.989-600.276-370.759-612.046l-23.54-17.655zM394.299 871.724c-170.667 0-306.023-135.356-306.023-306.023 0-270.713 229.517-464.92 306.023-517.885 76.506 52.966 311.908 241.287 311.908 517.885 0 170.667-141.241 306.023-311.908 306.023zM394.299 389.149c-94.161 0-176.552 76.506-176.552 176.552s76.506 176.552 176.552 176.552 176.552-76.506 176.552-176.552-76.506-176.552-176.552-176.552zM394.299 648.092c-47.080 0-88.276-35.31-88.276-88.276s35.31-88.276 88.276-88.276 88.276 35.31 88.276 88.276-35.31 88.276-88.276 88.276z" />
<glyph unicode="&#xe918;" glyph-name="google-plus" horiz-adv-x="1140" d="M1116.188 544.227h-171.883v171.86c0 13.111-10.64 23.774-23.751 23.774h-48.966c-13.134 0-23.819-10.663-23.819-23.774v-171.86h-171.86c-13.111 0-23.774-10.685-23.774-23.796v-48.966c0-13.134 10.663-23.774 23.774-23.774h171.86v-171.906c0-13.134 10.685-23.774 23.819-23.774h48.966c13.111 0 23.751 10.64 23.751 23.774v171.906h171.883c13.088 0 23.774 10.64 23.774 23.774v48.966c0 13.111-10.685 23.796-23.774 23.796zM538.599 393.554c-36.152 25.581-69.032 63.129-69.604 74.661 0 21.005 1.876 31.050 48.966 67.751 60.955 47.684 94.476 110.402 94.476 176.62 0 60.063-18.351 113.422-49.606 150.901h24.231c5.034 0 9.93 1.556 13.958 4.485l67.614 48.989c8.397 6.018 11.921 16.749 8.695 26.565-3.226 9.793-12.31 16.474-22.629 16.474h-302.374c-33.086 0-66.699-5.835-99.693-17.184-110.218-38.006-187.259-131.91-187.259-228.308 0-136.578 105.802-240.092 247.231-243.341-2.769-10.823-4.164-21.485-4.164-31.942 0-21.051 5.331-40.98 16.314-60.246-1.281-0.023-2.517-0.023-3.89-0.023-134.816 0-256.498-66.149-302.695-164.584-12.035-25.581-18.168-51.46-18.168-77.018 0-24.849 6.384-48.783 18.9-71.229 29.013-51.94 91.387-92.234 175.636-113.513 43.52-10.983 90.266-16.612 138.797-16.612 43.611 0 85.187 5.652 123.627 16.772 119.874 34.802 197.35 123.009 197.35 224.876 0 97.748-31.393 156.255-115.71 215.907zM221.49 718.169c-6.59 50.018 3.936 94.98 28.83 123.375 16.085 18.374 37.159 28.075 60.818 28.075l2.677-0.046c66.836-1.968 130.789-76.446 142.572-166.026 6.59-50.178-4.553-97.314-29.791-126.075-16.108-18.396-36.884-28.098-61.505-28.098h-1.121c-65.486 1.991-130.789 79.329-142.481 168.794zM332.738 31.895c-98.755 0-176.093 60.566-176.093 137.905 0 71.092 90.335 133.466 193.277 133.466l2.769-0.023c22.378-0.252 44.229-3.569 64.868-9.885 7.025-4.874 13.866-9.519 20.41-13.958 47.684-32.491 79.169-53.931 87.955-88.367 2.059-8.649 3.089-17.321 3.089-25.718 0.023-88.527-66.035-133.42-196.274-133.42z" />
<glyph unicode="&#xe919;" glyph-name="grid" d="M0 960h301.176v-301.176h-301.176v301.176zM361.412 960h301.176v-301.176h-301.176v301.176zM722.824 960h301.176v-301.176h-301.176v301.176zM722.824 598.588h301.176v-301.176h-301.176v301.176zM361.412 598.588h301.176v-301.176h-301.176v301.176zM0 598.588h301.176v-301.176h-301.176v301.176zM0 237.176h301.176v-301.176h-301.176v301.176zM361.412 237.176h301.176v-301.176h-301.176v301.176zM722.824 237.176h301.176v-301.176h-301.176v301.176z" />
<glyph unicode="&#xe91a;" glyph-name="list" horiz-adv-x="1161" d="M0 960h1160.533v-204.8h-1160.533v204.8zM0 550.4h1160.533v-204.8h-1160.533v204.8zM0 140.8h1160.533v-204.8h-1160.533v204.8z" />
<glyph unicode="&#xe91b;" glyph-name="icon-share" horiz-adv-x="878" d="M468.114 170.057h-58.514v702.171l-169.691-134.583-35.109 46.811 216.503 169.691c5.851 5.851 23.406 5.851 29.257 0 11.703 0 17.554-11.703 17.554-23.406v-760.686zM468.114 170.057h-58.514v760.686c0 11.703 5.851 23.406 17.554 23.406 5.851 5.851 23.406 5.851 29.257 0l216.503-169.691-35.109-46.811-169.691 134.583v-702.171zM877.714-64h-877.714v702.171h292.571v-58.514h-234.057v-585.143h760.686v585.143h-292.571v58.514h351.086z" />
<glyph unicode="&#xe91c;" glyph-name="edit" d="M696.32 796.16l-696.32-696.32v-163.84h163.84l696.32 696.32zM755.099 854.939l105.061 105.061 163.84-163.84-105.061-105.061-163.84 163.84z" />
<glyph unicode="&#xe91d;" glyph-name="go-back" horiz-adv-x="997" d="M513.962-64l-513.962 510.038 513.962 513.962 54.927-54.927-459.034-459.034 459.034-455.111zM54.927 485.272h941.609v-78.467h-941.609v78.467z" />
<glyph unicode="&#xe91e;" glyph-name="log-out" horiz-adv-x="991" d="M462.452 960h66.065v-528.516h-66.065v528.516zM495.484-64c-270.865 0-495.484 224.619-495.484 495.484 0 178.374 92.49 336.929 244.439 422.813l33.032-59.458c-132.129-72.671-211.406-211.406-211.406-363.355 0-237.832 191.587-429.419 429.419-429.419s429.419 191.587 429.419 429.419c0 151.948-79.277 290.684-211.406 369.961l33.032 59.458c151.948-92.49 244.439-251.045 244.439-429.419 0-270.865-224.619-495.484-495.484-495.484z" />
<glyph unicode="&#xe91f;" glyph-name="print" horiz-adv-x="1092" d="M1092.267 140.8h-1092.267v477.867h1092.267v-477.867zM68.267 209.067h955.733v341.333h-955.733v-341.333zM887.467-64h-682.667v409.6h682.667v-409.6zM273.067 4.267h546.133v273.067h-546.133v-273.067zM887.467 550.4h-682.667v409.6h682.667v-409.6zM273.067 618.667h546.133v273.067h-546.133v-273.067z" />
<glyph unicode="&#xe920;" glyph-name="go-next" horiz-adv-x="997" d="M486.498 960l510.038-513.962-510.038-510.038-58.851 54.927 459.034 455.111-459.034 459.034zM0 485.272h941.609v-78.467h-941.609v78.467z" />
<glyph unicode="&#xe921;" glyph-name="heart-solid" horiz-adv-x="1115" d="M1017.034 862.476c-125.388 125.388-334.367 125.388-459.755 0v0c-125.388 125.388-334.367 125.388-459.755 0s-125.388-334.367 0-459.755v0l459.755-466.721 459.755 466.721c132.354 125.388 132.354 334.367 0 459.755z" />
<glyph unicode="&#xe922;" glyph-name="zoom" d="M445.217 91.826c233.592 0 422.957 189.364 422.957 422.957s-189.364 422.957-422.957 422.957c-233.592 0-422.957-189.364-422.957-422.957s189.364-422.957 422.957-422.957zM445.217 136.348c-209.004 0-378.435 169.431-378.435 378.435s169.431 378.435 378.435 378.435c209.004 0 378.435-169.431 378.435-378.435s-169.431-378.435-378.435-378.435zM422.957 692.87v-356.174h44.522v356.174zM244.87 492.522h403.467v44.522h-403.467zM718.868 209.65l244.87-244.87 31.482 31.482-244.87 244.87z" />
<glyph unicode="&#xe923;" glyph-name="download-1" horiz-adv-x="1109" d="M1109.338 0.001c0-35.34-28.661-64.001-64.001-64.001h-981.337c-35.34 0-64.001 28.661-64.001 64.001v213.328c0 35.34 28.661 64.001 64.001 64.001h310.004l89.998-90.667c24.659-24.002 56.665-37.335 90.667-37.335s65.996 13.333 90.667 37.335l90.667 90.667h309.335c35.34 0 64.001-28.661 64.001-64.001v-213.328zM883.335 545.996l-298.666-298.666c-8.005-8.662-19.342-12.664-29.999-12.664s-21.995 4.002-29.999 12.664l-298.666 298.666c-12.664 11.995-15.997 30.668-9.331 46.665 6.666 15.34 22.007 25.997 39.33 25.997h170.665v298.678c0 23.333 19.33 42.663 42.663 42.663h170.665c23.333 0 42.663-19.33 42.663-42.663v-298.666h170.665c17.335 0 32.663-10.669 39.33-25.997 6.678-16.009 3.345-34.671-9.319-46.677zM810.66 106.665c-23.333 0-42.663-19.33-42.663-42.663s19.33-42.663 42.663-42.663 42.663 19.33 42.663 42.663-19.319 42.663-42.663 42.663zM981.337 106.665c-23.333 0-42.663-19.33-42.663-42.663s19.33-42.663 42.663-42.663 42.663 19.33 42.663 42.663-19.33 42.663-42.663 42.663z" />
<glyph unicode="&#xe924;" glyph-name="mail-2" horiz-adv-x="1617" d="M778.821 342.531l-739.735 509.9c-22.45 15.344-28.265 46.193-12.598 68.644 15.344 22.45 46.193 28.265 68.644 12.437l711.632-490.357 711.47 490.357c22.45 15.828 53.461 10.014 68.644-12.437 15.344-22.45 10.014-53.461-12.598-68.644l-739.735-509.9c-8.237-5.815-17.928-8.883-28.103-8.883-9.045 0-18.897 2.746-27.619 8.883zM1551.344-46.556h-1483.669c-27.296 0-49.262 22.127-49.262 49.423v890.266c0 27.296 22.127 49.262 49.262 49.262h1483.669c27.296 0 49.262-22.127 49.262-49.262v-890.105c0-27.457-22.127-49.585-49.262-49.585zM116.936 52.29h1384.823v791.258h-1384.823v-791.258z" />
</font>
</defs>
</svg>
